<?xml version="1.0" encoding="UTF-8"?>
<!DOCTYPE svg PUBLIC "-//W3C//DTD SVG 1.1//EN" "http://www.w3.org/Graphics/SVG/1.1/DTD/svg11.dtd">
<svg xmlns="http://www.w3.org/2000/svg" version="1.1" width="256px" height="256px" style="shape-rendering:geometricPrecision; text-rendering:geometricPrecision; image-rendering:optimizeQuality; fill-rule:evenodd; clip-rule:evenodd" xmlns:xlink="http://www.w3.org/1999/xlink">
<g><path style="opacity:1" fill="#fefdfd" d="M -0.5,-0.5 C 84.8333,-0.5 170.167,-0.5 255.5,-0.5C 255.5,84.8333 255.5,170.167 255.5,255.5C 170.167,255.5 84.8333,255.5 -0.5,255.5C -0.5,170.167 -0.5,84.8333 -0.5,-0.5 Z"/></g>
<g><path style="opacity:1" fill="#8f0503" d="M 154.5,59.5 C 149.695,58.5128 144.695,58.1795 139.5,58.5C 144.449,57.3491 151.449,57.1825 160.5,58C 158.414,58.3153 156.414,58.8153 154.5,59.5 Z"/></g>
<g><path style="opacity:1" fill="#932926" d="M 139.5,58.5 C 144.695,58.1795 149.695,58.5128 154.5,59.5C 149.766,61.7393 146.599,65.406 145,70.5C 145.542,65.2591 143.709,61.2591 139.5,58.5 Z"/></g>
<g><path style="opacity:1" fill="#932826" d="M 64.5,170.5 C 64.8417,171.338 65.5084,171.672 66.5,171.5C 63.244,181.681 60.4107,192.014 58,202.5C 50.2604,175.96 43.0937,149.293 36.5,122.5C 37.8668,120.21 37.2002,118.544 34.5,117.5C 30.8071,101.73 26.6404,86.063 22,70.5C 18.9298,63.7658 13.7631,59.5992 6.5,58C 19.8333,57.3333 33.1667,57.3333 46.5,58C 38.7391,59.7912 35.9058,64.6246 38,72.5C 42.0673,87.5343 46.234,102.534 50.5,117.5C 49.8333,118.167 49.1667,118.833 48.5,119.5C 48.9377,120.506 49.6043,120.506 50.5,119.5C 55.9116,136.314 60.5783,153.314 64.5,170.5 Z"/></g>
<g><path style="opacity:1" fill="#962b27" d="M 94.5,69.5 C 94.1667,69.5 93.8333,69.5 93.5,69.5C 94.4065,63.1384 91.7398,59.3051 85.5,58C 93.1667,57.3333 100.833,57.3333 108.5,58C 101.949,59.7458 97.2823,63.5792 94.5,69.5 Z"/></g>
<g><path style="opacity:1" fill="#c89b9a" d="M 93.5,69.5 C 93.8333,69.5 94.1667,69.5 94.5,69.5C 93.0897,73.7047 92.423,78.038 92.5,82.5C 91.8333,81.8333 91.1667,81.1667 90.5,80.5C 90.8816,76.5544 91.8816,72.8878 93.5,69.5 Z"/></g>
<g><path style="opacity:1" fill="#932725" d="M 90.5,80.5 C 91.1667,81.1667 91.8333,81.8333 92.5,82.5C 93.2455,87.2277 94.2455,91.8944 95.5,96.5C 91.8345,95.5516 91.5011,96.5516 94.5,99.5C 95.1818,98.7573 95.8485,98.0906 96.5,97.5C 102.376,121.34 108.709,145.006 115.5,168.5C 115.517,170.565 115.85,172.565 116.5,174.5C 114.308,183.911 111.808,193.244 109,202.5C 100.925,171.188 92.0917,140.188 82.5,109.5C 85.3237,99.8714 87.9903,90.2048 90.5,80.5 Z"/></g>
<g><path style="opacity:1" fill="#b77f7e" d="M 202.5,86.5 C 203.404,87.209 203.737,88.209 203.5,89.5C 202.142,90.6256 200.808,90.6256 199.5,89.5C 200.993,88.8589 201.993,87.8589 202.5,86.5 Z"/></g>
<g><path style="opacity:1" fill="#ddc0c0" d="M 29.5,94.5 C 30.0768,93.2267 30.7435,93.2267 31.5,94.5C 32.3256,95.451 32.4922,96.451 32,97.5C 31.1482,96.4293 30.3149,95.4293 29.5,94.5 Z"/></g>
<g><path style="opacity:1" fill="#c28685" d="M 95.5,96.5 C 96.1667,96.5 96.5,96.8333 96.5,97.5C 95.8485,98.0906 95.1818,98.7573 94.5,99.5C 91.5011,96.5516 91.8345,95.5516 95.5,96.5 Z"/></g>
<g><path style="opacity:1" fill="#c69696" d="M 189.5,97.5 C 190.5,97.5 191.5,97.5 192.5,97.5C 192.634,99.2915 192.301,100.958 191.5,102.5C 190.069,101.22 189.402,99.5529 189.5,97.5 Z"/></g>
<g><path style="opacity:1" fill="#c28d8b" d="M 116.5,174.5 C 115.85,172.565 115.517,170.565 115.5,168.5C 117.092,169.602 117.925,168.935 118,166.5C 126.06,134.655 134.727,102.989 144,71.5C 144.167,72.1667 144.333,72.8333 144.5,73.5C 135.607,107.417 126.274,141.083 116.5,174.5 Z"/></g>
<g><path style="opacity:1" fill="#c38e8e" d="M 34.5,117.5 C 37.2002,118.544 37.8668,120.21 36.5,122.5C 35.0687,121.22 34.4021,119.553 34.5,117.5 Z"/></g>
<g><path style="opacity:1" fill="#caa6a6" d="M 93.5,122.5 C 95.337,122.639 95.6704,123.306 94.5,124.5C 93.7025,124.043 93.3691,123.376 93.5,122.5 Z"/></g>
<g><path style="opacity:1" fill="#ead7d7" d="M 43.5,129.5 C 47.1612,129.35 48.1612,130.85 46.5,134C 45.5509,134.617 44.7175,134.451 44,133.5C 43.51,132.207 43.3433,130.873 43.5,129.5 Z"/></g>
<g><path style="opacity:1" fill="#c28c8b" d="M 81.5,111.5 C 82.6129,112.946 82.7796,114.613 82,116.5C 78.8197,128.223 75.4864,139.889 72,151.5C 74.6293,138.097 77.7959,124.763 81.5,111.5 Z"/></g>
<g><path style="opacity:1" fill="#932725" d="M 202.5,86.5 C 201.993,87.8589 200.993,88.8589 199.5,89.5C 200.808,90.6256 202.142,90.6256 203.5,89.5C 207.429,105.619 211.762,121.619 216.5,137.5C 215.833,138.167 215.167,138.833 214.5,139.5C 214.938,140.506 215.604,140.506 216.5,139.5C 221.23,156.857 226.063,174.19 231,191.5C 234.355,197.384 239.188,201.05 245.5,202.5C 232.323,202.829 219.323,202.495 206.5,201.5C 212.209,200.954 214.875,197.788 214.5,192C 212.895,183.078 210.895,174.245 208.5,165.5C 209.978,165.762 211.311,165.429 212.5,164.5C 211.224,163.355 209.891,163.355 208.5,164.5C 202.524,143.929 196.857,123.262 191.5,102.5C 192.301,100.958 192.634,99.2915 192.5,97.5C 191.5,97.5 190.5,97.5 189.5,97.5C 189.329,94.1219 188.329,91.7885 186.5,90.5C 186.167,90.5 185.833,90.5 185.5,90.5C 188.605,79.5446 191.605,68.5446 194.5,57.5C 197.472,67.1027 200.139,76.7694 202.5,86.5 Z"/></g>
<g><path style="opacity:1" fill="#c39393" d="M 203.5,142.5 C 205.337,142.639 205.67,143.306 204.5,144.5C 203.702,144.043 203.369,143.376 203.5,142.5 Z"/></g>
<g><path style="opacity:1" fill="#d9bbbb" d="M 209.5,140.5 C 210.978,140.238 212.311,140.571 213.5,141.5C 212.68,143.111 211.346,143.778 209.5,143.5C 209.5,142.5 209.5,141.5 209.5,140.5 Z"/></g>
<g><path style="opacity:1" fill="#dcc0c0" d="M 193.5,91.5 C 194.497,90.2875 195.497,90.4542 196.5,92C 195.423,92.4696 194.423,92.3029 193.5,91.5 Z"/></g>
<g><path style="opacity:1" fill="#c89e9e" d="M 193.5,74.5 C 197.31,75.7542 197.31,76.7542 193.5,77.5C 193.5,76.5 193.5,75.5 193.5,74.5 Z"/></g>
<g><path style="opacity:1" fill="#c08988" d="M 66.5,171.5 C 65.5084,171.672 64.8417,171.338 64.5,170.5C 65.6491,170.209 66.3158,169.376 66.5,168C 67.623,162.714 69.123,157.547 71,152.5C 70.4062,159.1 68.9062,165.434 66.5,171.5 Z"/></g>
<g><path style="opacity:1" fill="#d6b8b8" d="M 53.5,173.5 C 55.337,173.639 55.6704,174.306 54.5,175.5C 53.7025,175.043 53.3691,174.376 53.5,173.5 Z"/></g>
<g><path style="opacity:1" fill="#c18c8b" d="M 185.5,90.5 C 185.833,90.5 186.167,90.5 186.5,90.5C 177.827,122.859 168.993,155.192 160,187.5C 159.503,190.146 159.336,192.813 159.5,195.5C 158.833,194.167 158.167,192.833 157.5,191.5C 166.594,157.658 175.927,123.992 185.5,90.5 Z"/></g>
<g><path style="opacity:1" fill="#942923" d="M 157.5,191.5 C 158.167,192.833 158.833,194.167 159.5,195.5C 160.002,199.59 162.335,201.59 166.5,201.5C 158.833,202.833 151.167,202.833 143.5,201.5C 150.082,200.927 154.749,197.593 157.5,191.5 Z"/></g>
<g><path style="opacity:1" fill="#d6b7b7" d="M 143.5,201.5 C 151.167,202.833 158.833,202.833 166.5,201.5C 167.043,201.56 167.376,201.893 167.5,202.5C 159.167,203.833 150.833,203.833 142.5,202.5C 142.624,201.893 142.957,201.56 143.5,201.5 Z"/></g>
<g><path style="opacity:1" fill="#d6b8b8" d="M 206.5,201.5 C 219.323,202.495 232.323,202.829 245.5,202.5C 232.327,203.825 218.994,203.825 205.5,202.5C 205.624,201.893 205.957,201.56 206.5,201.5 Z"/></g>
</svg>
